<svg width="180" height="160" viewBox="0 0 180 160" xmlns="http://www.w3.org/2000/svg">
  <!-- Chicken stage 4 - Almost fully transformed -->
  <ellipse cx="90" cy="80" rx="35" ry="30" fill="#F5DEB3" stroke="#000" stroke-width="2"/>
  
  <!-- Full feathers -->
  <path d="M 60 55 Q 70 35, 85 45 Q 100 25, 115 45 Q 130 35, 140 55" fill="#FFD700" stroke="#FFA500" stroke-width="1"/>
  <circle cx="65" cy="45" r="5" fill="#8B4513"/>
  <circle cx="90" cy="35" r="5" fill="#8B4513"/>
  <circle cx="115" cy="45" r="5" fill="#8B4513"/>
  
  <!-- Chicken eyes -->
  <circle cx="80" cy="70" r="6" fill="#fff" stroke="#000" stroke-width="1"/>
  <circle cx="100" cy="70" r="6" fill="#fff" stroke="#000" stroke-width="1"/>
  <circle cx="80" cy="70" r="3" fill="#000"/>
  <circle cx="100" cy="70" r="3" fill="#000"/>
  
  <!-- Beak -->
  <path d="M 90 75 L 80 80 L 90 85 L 100 80 Z" fill="#FF8C00" stroke="#000" stroke-width="1"/>
  
  <!-- Wattles -->
  <ellipse cx="85" cy="90" rx="6" ry="4" fill="#DC143C" stroke="#000" stroke-width="1"/>
  <ellipse cx="95" cy="90" rx="6" ry="4" fill="#DC143C" stroke="#000" stroke-width="1"/>
  
  <!-- Small taco -->
  <rect x="82" y="80" width="16" height="6" rx="3" fill="#8B4513" stroke="#000" stroke-width="1"/>
  <text x="90" y="84" text-anchor="middle" font-size="6" fill="#fff" font-weight="bold">TACO</text>
</svg>